# xmcd
#
# Track frame offsets:
#	150
#	18810
#	31250
#	45197
#	63341
#	77422
#	97046
#	107900
#	123009
#	139293
#	151454
#	167358
#	181791
#	194246
#	208990
#	234642
#	251346
#	268875
#	285595
#	304955
#	316973
#	331517
#
# Disc length: 4584
#
# Revision: 2
# Processed by: cddbd v1.5.1PL0 Copyright (c) Steve Scherf et al.
# Submitted via: CDex 1.50beta9
# Normalized: r1:TDELIM( - )
#
DISCID=2911e616
DTITLE=Acker, Kenny and Chris - 22 Timeless Jazz Favourites
DYEAR=1997
DGENRE=Jazz
TTITLE0=Acker Bilk - South Rampart Street Parade
TTITLE1=Chris Barber - Petite Fleur
TTITLE2=Kenny Ball - Temptation Flag
TTITLE3=Acker Bilk - Chelsea Cakewalk
TTITLE4=Kenny Ball - American Patrol
TTITLE5=Chris Barber - Yama Yama Man
TTITLE6=Kenny Ball - Big Noise From Winnetka
TTITLE7=Chris Barber - Sweet Sue Just You
TTITLE8=Acker Bilk - Rose Of The Rio Grande
TTITLE9=Kenny Ball - Livery Stable Blues
TTITLE10=Chris Barber - Careless Love
TTITLE11=Acker Bilk - Willie The Weeper
TTITLE12=Kenny Ball - 1919 March
TTITLE13=Chris Barber - Bill Bailey Won't You Please Come Home
TTITLE14=Kenny Ball - Mood Indigo
TTITLE15=Acker Bilk - Dardanella
TTITLE16=Chris Barber - Bugle Boy March
TTITLE17=Kenny Ball - Milenberg Joys
TTITLE18=Acker Bilk - Sweet Georgia Brown
TTITLE19=Chris Barber - Bourbon Street Parade
TTITLE20=Kenny Ball - Dinah
TTITLE21=Acker Bilk - Burgundy Street
EXTD=YEAR: 1997
EXTT0=
EXTT1=
EXTT2=
EXTT3=
EXTT4=
EXTT5=
EXTT6=
EXTT7=
EXTT8=
EXTT9=
EXTT10=
EXTT11=
EXTT12=
EXTT13=
EXTT14=
EXTT15=
EXTT16=
EXTT17=
EXTT18=
EXTT19=
EXTT20=
EXTT21=
PLAYORDER=
